<svg xmlns="http://www.w3.org/2000/svg" viewBox="0 0 778 778"><defs><style>.cls-1{fill:#fff;}.cls-2{fill:#ffd23b;}</style></defs><g id="Layer_2" data-name="Layer 2"><g id="Layer_1-2" data-name="Layer 1"><rect class="cls-1" width="778" height="778" rx="120"/><polygon class="cls-2" points="308.29 209.41 339.49 209.41 350.25 231.03 354.57 239.71 359.34 249.32 326.57 249.32 308.29 209.41"/><path class="cls-2" d="M309.56,470.48,298,493.64l-3.37,6.77H266.47L264,495.32l12.35-24.84,5.11-10.24,1.53-3.06,8.26-16.63,9.33-18.74,5.55-11.19L318,386.72l3-6,12-24,2.93-5.91h29.05l4.22.07-14.91,29.87-4.66,9.37-10.24,20.56-4.72,9.52-10.16,20.41-7.3,14.66-1,2Z"/><polygon class="cls-2" points="387.68 457.18 385.33 461.9 381.06 470.48 370.37 491.98 366.16 500.41 352.91 527.05 351.26 530.34 316.29 530.34 315.49 528.73 329.58 500.41 334.62 490.3 344.48 470.48 351.1 457.18 387.68 457.18"/><polygon class="cls-2" points="360.97 620.13 373.69 645.67 371.5 650.07 356.6 680 321.68 680 336.58 650.07 338.77 645.67 326.05 620.13 316.33 600.56 311.15 590.2 346.07 590.2 356.23 610.59 360.97 620.13"/><polygon class="cls-2" points="355.25 98 349.45 109.64 337.94 132.79 334.57 139.57 296.32 139.57 300.53 131.13 311.2 109.64 317.01 98 355.25 98"/><path class="cls-2" d="M306,650.07,320.93,680H289.34l-6.27-12.61-8.63-17.32-9.66-19.44-5.24-10.5-12.22-24.57L250,590.2l13.14-26.39,1.74-3.54,14.9-29.93h34.92l-14.9,29.93L298,563.81,284.9,590.2l-4.33,8.7,10.56,21.23,7.74,15.52Z"/><polygon class="cls-2" points="300.21 290.89 314.66 319.91 314.2 320.82 299.7 349.97 299.3 350.75 284.4 380.69 249.48 380.69 264.38 350.75 264.78 349.97 279.28 320.82 282.24 314.89 270.28 290.89 264.78 279.8 255.38 260.96 249.6 249.32 245.66 241.39 240.5 231.03 229.74 209.41 228.2 206.3 230.77 201.1 243.16 176.22 245.67 171.17 246.5 169.51 260.62 141.15 261.4 139.57 296.32 139.57 281.42 169.51 280.59 171.17 278.08 176.22 265.69 201.1 261.57 209.41 260.62 211.31 270.43 231.03 279.54 249.32 279.74 249.74 285.31 260.96 297.2 284.82 300.21 290.89"/><polygon class="cls-2" points="263.95 495.32 266.47 500.41 261.4 500.41 263.95 495.32"/><polygon class="cls-2" points="251.57 470.48 263.95 495.32 261.4 500.41 231.55 500.41 228.2 493.64 216.66 470.48 210.74 458.56 210.05 457.18 201.76 440.55 236.68 440.55 244.97 457.18 245.66 458.56 251.57 470.48"/><polygon class="cls-2" points="236.51 370.01 241.81 380.69 206.9 380.69 201.59 370.03 201.59 370.01 192 350.75 191.61 349.97 177.1 320.82 212.02 320.82 226.91 350.75 228.2 353.32 236.51 370.01"/><polygon class="cls-2" points="229.76 560.27 230.69 562.13 216.72 590.2 180.14 590.2 194.11 562.13 195.02 560.27 229.76 560.27"/><path class="cls-2" d="M201.41,440.55l-8.13,16.34-.14.29-6.63,13.3c-.23.48-.48,1-.72,1.45h0L175,493.64l-3.37,6.77-4.11,8.26-10.79,21.67-5.84,11.74,9,18.19.1.2L174.8,590.2H139.88l-6.47-13-8.31-16.71-.1-.2-9-18.19,5.84-11.74L133.41,507l3.28-6.6,3.38-6.77,10-20,1.55-3.13,6.63-13.3.14-.29,8.13-16.34Z"/><path class="cls-2" d="M157.08,350.75,172,380.69h-31.6l-14.45-29.05.43-.89,14.9-29.93h29.93L156.69,350C156.83,350.24,156.94,350.49,157.08,350.75Z"/><line class="cls-2" x1="315.49" y1="528.73" x2="314.68" y2="530.34"/><line class="cls-2" x1="266.47" y1="500.41" x2="261.4" y2="500.41"/><line class="cls-2" x1="201.76" y1="440.55" x2="201.41" y2="440.55"/><line class="cls-2" x1="316.29" y1="530.34" x2="314.68" y2="530.34"/><line class="cls-2" x1="321.68" y1="680" x2="320.93" y2="680"/><path class="cls-2" d="M320.93,680H289.34l-6.27-12.61-8.63-17.32-9.66-19.44-5.24-10.5-12.22-24.57L250,590.2l13.14-26.39,1.74-3.54,14.9-29.93h34.92l-14.9,29.93L298,563.81,284.9,590.2l-4.33,8.7,10.56,21.23,7.74,15.52L306,650.07Z"/><polygon class="cls-2" points="373.69 645.67 371.5 650.07 356.6 680 321.68 680 336.58 650.07 338.77 645.67 326.05 620.13 316.33 600.56 311.15 590.2 346.07 590.2 356.23 610.59 360.97 620.13 373.69 645.67"/><polygon class="cls-2" points="315.49 528.73 329.58 500.41 334.62 490.3 344.48 470.48 351.1 457.18 387.68 457.18 385.33 461.9 381.06 470.48 370.37 491.98 366.16 500.41 352.91 527.05 351.26 530.34 316.29 530.34 315.49 528.73"/><polygon class="cls-2" points="230.69 562.13 216.72 590.2 180.14 590.2 194.11 562.13 195.02 560.27 229.76 560.27 230.69 562.13"/><path class="cls-2" d="M201.41,440.55H166.49l-8.13,16.34-.14.29-6.63,13.3L150,473.61l-10,20-3.38,6.77-3.28,6.6-11.62,23.33L116,542.08l9,18.19.1.2,8.31,16.71,6.47,13H174.8L160,560.47l-.1-.2-9-18.19,5.84-11.74,10.79-21.67,4.11-8.26,3.37-6.77,10.81-21.7h0c.24-.49.49-1,.72-1.45l6.63-13.3.14-.29Z"/><path class="cls-2" d="M264,495.32l12.35-24.84,5.11-10.24,1.53-3.06,8.26-16.63,9.33-18.74,5.55-11.19L318,386.72l3-6,12-24,2.93-5.91h29.05l4.22.07-14.91,29.87-4.66,9.37-10.24,20.56-4.72,9.52-10.16,20.41-7.3,14.66-1,2-6.62,13.3L298,493.64l-3.37,6.77H266.47Z"/><path class="cls-2" d="M157.08,350.75,172,380.69h-31.6l-14.45-29.05.43-.89,14.9-29.93h29.93L156.69,350C156.83,350.24,156.94,350.49,157.08,350.75Z"/><polygon class="cls-2" points="314.66 319.91 314.2 320.82 299.7 349.97 299.3 350.75 284.4 380.69 249.48 380.69 264.38 350.75 264.78 349.97 279.28 320.82 282.24 314.89 270.28 290.89 264.78 279.8 255.38 260.96 249.6 249.32 245.66 241.39 240.5 231.03 229.74 209.41 228.2 206.3 230.77 201.1 243.16 176.22 245.67 171.17 246.5 169.51 260.62 141.15 261.4 139.57 296.32 139.57 281.42 169.51 280.59 171.17 278.08 176.22 265.69 201.1 261.57 209.41 260.62 211.31 270.43 231.03 279.54 249.32 279.74 249.74 285.31 260.96 297.2 284.82 300.21 290.89 314.66 319.91"/><polygon class="cls-2" points="355.25 98 349.45 109.64 337.94 132.79 334.57 139.57 296.32 139.57 300.53 131.13 311.2 109.64 317.01 98 355.25 98"/><polygon class="cls-2" points="241.81 380.69 206.9 380.69 201.59 370.03 201.59 370.01 192 350.75 191.61 349.97 177.1 320.82 212.02 320.82 226.91 350.75 228.2 353.32 236.51 370.01 241.81 380.69"/><polygon class="cls-2" points="263.95 495.32 261.4 500.41 231.55 500.41 228.2 493.64 216.66 470.48 210.74 458.56 210.05 457.18 201.76 440.55 236.68 440.55 244.97 457.18 245.66 458.56 251.57 470.48 263.95 495.32"/><polygon class="cls-2" points="469.71 209.41 438.51 209.41 427.75 231.03 423.43 239.71 418.66 249.32 451.43 249.32 469.71 209.41"/><path class="cls-2" d="M468.44,470.48,480,493.64l3.37,6.77h28.19l2.52-5.09L501.7,470.48l-5.11-10.24-1.53-3.06-8.26-16.63-9.33-18.74-5.55-11.19L460,386.72l-3-6-12-24-2.93-5.91H413.07l-4.22.07,14.91,29.87,4.66,9.37,10.24,20.56,4.72,9.52,10.16,20.41,7.3,14.66,1,2Z"/><polygon class="cls-2" points="390.32 457.18 392.67 461.9 396.94 470.48 407.63 491.98 411.84 500.41 425.09 527.05 426.74 530.34 461.71 530.34 462.51 528.73 448.42 500.41 443.38 490.3 433.52 470.48 426.9 457.18 390.32 457.18"/><polygon class="cls-2" points="417.03 620.13 404.31 645.67 406.5 650.07 421.4 680 456.32 680 441.42 650.07 439.23 645.67 451.95 620.13 461.67 600.56 466.85 590.2 431.93 590.2 421.77 610.59 417.03 620.13"/><polygon class="cls-2" points="422.75 98 428.55 109.64 440.06 132.79 443.43 139.57 481.68 139.57 477.47 131.13 466.8 109.64 460.99 98 422.75 98"/><path class="cls-2" d="M472,650.07,457.07,680h31.59l6.27-12.61,8.63-17.32,9.66-19.44,5.24-10.5,12.22-24.57L528,590.2l-13.14-26.39-1.74-3.54-14.9-29.93H463.32l14.9,29.93,1.75,3.54L493.1,590.2l4.33,8.7-10.56,21.23-7.74,15.52Z"/><polygon class="cls-2" points="477.79 290.89 463.34 319.91 463.8 320.82 478.3 349.97 478.7 350.75 493.6 380.69 528.52 380.69 513.62 350.75 513.22 349.97 498.72 320.82 495.76 314.89 507.72 290.89 513.22 279.8 522.62 260.96 528.4 249.32 532.35 241.39 537.5 231.03 548.26 209.41 549.8 206.3 547.23 201.1 534.84 176.22 532.33 171.17 531.5 169.51 517.38 141.15 516.6 139.57 481.68 139.57 496.58 169.51 497.41 171.17 499.92 176.22 512.31 201.1 516.43 209.41 517.38 211.31 507.57 231.03 498.46 249.32 498.26 249.74 492.69 260.96 480.8 284.82 477.79 290.89"/><polygon class="cls-2" points="514.05 495.32 511.53 500.41 516.6 500.41 514.05 495.32"/><polygon class="cls-2" points="526.42 470.48 514.05 495.32 516.6 500.41 546.45 500.41 549.8 493.64 561.35 470.48 567.26 458.56 567.95 457.18 576.24 440.55 541.32 440.55 533.03 457.18 532.35 458.56 526.42 470.48"/><polygon class="cls-2" points="541.49 370.01 536.19 380.69 571.11 380.69 576.41 370.03 576.41 370.01 586 350.75 586.39 349.97 600.9 320.82 565.98 320.82 551.09 350.75 549.8 353.32 541.49 370.01"/><polygon class="cls-2" points="548.24 560.27 547.31 562.13 561.28 590.2 597.86 590.2 583.89 562.13 582.98 560.27 548.24 560.27"/><path class="cls-2" d="M576.59,440.55l8.13,16.34.14.29,6.63,13.3c.23.48.48,1,.72,1.45h0L603,493.64l3.37,6.77,4.11,8.26,10.79,21.67,5.84,11.74-9,18.19-.1.2L603.2,590.2h34.92l6.47-13,8.31-16.71.1-.2,9-18.19-5.84-11.74L644.59,507l-3.28-6.6-3.38-6.77-10-20-1.55-3.13-6.63-13.3-.14-.29-8.13-16.34Z"/><path class="cls-2" d="M620.92,350.75,606,380.69h31.6l14.45-29.05-.43-.89-14.9-29.93H606.81L621.31,350C621.17,350.24,621.06,350.49,620.92,350.75Z"/><line class="cls-2" x1="462.51" y1="528.73" x2="463.32" y2="530.34"/><line class="cls-2" x1="511.53" y1="500.41" x2="516.6" y2="500.41"/><line class="cls-2" x1="576.24" y1="440.55" x2="576.59" y2="440.55"/><line class="cls-2" x1="461.71" y1="530.34" x2="463.32" y2="530.34"/><line class="cls-2" x1="456.32" y1="680" x2="457.07" y2="680"/><path class="cls-2" d="M457.07,680h31.59l6.27-12.61,8.63-17.32,9.66-19.44,5.24-10.5,12.22-24.57L528,590.2l-13.14-26.39-1.74-3.54-14.9-29.93H463.32l14.9,29.93,1.75,3.54L493.1,590.2l4.33,8.7-10.56,21.23-7.74,15.52L472,650.07Z"/><polygon class="cls-2" points="404.31 645.67 406.5 650.07 421.4 680 456.32 680 441.42 650.07 439.23 645.67 451.95 620.13 461.67 600.56 466.85 590.2 431.93 590.2 421.77 610.59 417.03 620.13 404.31 645.67"/><polygon class="cls-2" points="462.51 528.73 448.42 500.41 443.38 490.3 433.52 470.48 426.9 457.18 390.32 457.18 392.67 461.9 396.94 470.48 407.63 491.98 411.84 500.41 425.09 527.05 426.74 530.34 461.71 530.34 462.51 528.73"/><polygon class="cls-2" points="547.31 562.13 561.28 590.2 597.86 590.2 583.89 562.13 582.98 560.27 548.24 560.27 547.31 562.13"/><path class="cls-2" d="M576.59,440.55h34.92l8.13,16.34.14.29,6.63,13.3,1.55,3.13,10,20,3.38,6.77,3.28,6.6,11.62,23.33,5.84,11.74-9,18.19-.1.2-8.31,16.71-6.47,13H603.2L618,560.47l.1-.2,9-18.19-5.84-11.74L610.5,508.67l-4.11-8.26L603,493.64l-10.81-21.7h0c-.24-.49-.49-1-.72-1.45l-6.63-13.3-.14-.29Z"/><path class="cls-2" d="M514.05,495.32,501.7,470.48l-5.11-10.24-1.53-3.06-8.26-16.63-9.33-18.74-5.55-11.19L460,386.72l-3-6-12-24-2.93-5.91H413.07l-4.22.07,14.91,29.87,4.66,9.37,10.24,20.56,4.72,9.52,10.16,20.41,7.3,14.66,1,2,6.62,13.3L480,493.64l3.37,6.77h28.19Z"/><path class="cls-2" d="M620.92,350.75,606,380.69h31.6l14.45-29.05-.43-.89-14.9-29.93H606.81L621.31,350C621.17,350.24,621.06,350.49,620.92,350.75Z"/><polygon class="cls-2" points="463.34 319.91 463.8 320.82 478.3 349.97 478.7 350.75 493.6 380.69 528.52 380.69 513.62 350.75 513.22 349.97 498.72 320.82 495.76 314.89 507.72 290.89 513.22 279.8 522.62 260.96 528.4 249.32 532.35 241.39 537.5 231.03 548.26 209.41 549.8 206.3 547.23 201.1 534.84 176.22 532.33 171.17 531.5 169.51 517.38 141.15 516.6 139.57 481.68 139.57 496.58 169.51 497.41 171.17 499.92 176.22 512.31 201.1 516.43 209.41 517.38 211.31 507.57 231.03 498.46 249.32 498.26 249.74 492.69 260.96 480.8 284.82 477.79 290.89 463.34 319.91"/><polygon class="cls-2" points="422.75 98 428.55 109.64 440.06 132.79 443.43 139.57 481.68 139.57 477.47 131.13 466.8 109.64 460.99 98 422.75 98"/><polygon class="cls-2" points="536.19 380.69 571.11 380.69 576.41 370.03 576.41 370.01 586 350.75 586.39 349.97 600.9 320.82 565.98 320.82 551.09 350.75 549.8 353.32 541.49 370.01 536.19 380.69"/><polygon class="cls-2" points="514.05 495.32 516.6 500.41 546.45 500.41 549.8 493.64 561.35 470.48 567.26 458.56 567.95 457.18 576.24 440.55 541.32 440.55 533.03 457.18 532.35 458.56 526.42 470.48 514.05 495.32"/></g></g></svg>